<mxfile host="app.diagrams.net" modified="2023-11-09T03:54:17.190Z" agent="Mozilla/5.0 (Windows NT 10.0; Win64; x64) AppleWebKit/537.36 (KHTML, like Gecko) Chrome/119.0.0.0 Safari/537.36" version="22.1.0" etag="svi_0c23FarYcnzQg-rO" type="github">
  <diagram name="Page-1" id="HVat8XP6wO-GztbH29CC">
    <mxGraphModel>
      <root>
        <mxCell id="0" />
        <mxCell id="1" parent="0" />
      </root>
    </mxGraphModel>
  </diagram>
</mxfile>
